<?xml version="1.0" encoding="UTF-8"?>
<!DOCTYPE svg PUBLIC "-//W3C//DTD SVG 1.1//EN" "http://www.w3.org/Graphics/SVG/1.1/DTD/svg11.dtd">
<!-- Creator: CorelDRAW -->
<svg xmlns="http://www.w3.org/2000/svg" xml:space="preserve" width="2000px" height="2000px" version="1.1" style="shape-rendering:geometricPrecision; text-rendering:geometricPrecision; image-rendering:optimizeQuality; fill-rule:evenodd; clip-rule:evenodd"
viewBox="0 0 2000 2000"
 xmlns:xlink="http://www.w3.org/1999/xlink"
 xmlns:xodm="http://www.corel.com/coreldraw/odm/2003">
 <defs>
  <style type="text/css">
   <![CDATA[
    .fil0 {fill:white}
   ]]>
  </style>
 </defs>
 <g id="Camada_x0020_1">
  <metadata id="CorelCorpID_0Corel-Layer"/>
  <path class="fil0" d="M1734.52 1032c-17.1,-12.08 -37.64,-45.06 -51.58,-50.93 -9.56,-4.03 -20,-1.27 -25.91,4.2 -23.13,21.41 6.34,43.25 16.58,53.7l25.58 27.38c8.94,8.8 20.51,31.32 40.98,26.37 8.29,-2 14.69,-10.89 18.85,-15.4l17.22 -17.02c11.71,-12.54 20.06,-22.75 33.5,-35 11.1,-10.12 23.38,-24.77 33.84,-36.29l50.63 -52.1c5.74,-5.67 10.67,-11.93 16.25,-18.04 5.04,-5.53 11.88,-10.13 13.54,-20.45 1.64,-10.17 -2.98,-18.43 -9.2,-23.28 -19.9,-15.51 -37.48,8.12 -45.27,16.45 -22.11,23.65 -44.85,46.54 -66.74,70.32l-59.1 60.79c-3.49,3.7 -5.41,6.32 -9.17,9.3zm-475.13 175.94l0 -0.12 -0.29 0 -94.18 -127.63 0 127.63 -61.24 0 0 -355.11 61.24 0 0 207.83 89.04 -107.99 76.68 0 -103.36 116.32 51.04 63.3 78.48 -78.48c18.19,-18.29 32.83,-34.01 43.91,-47.25 10.98,-13.24 19.49,-25.08 25.51,-35.52 6.03,-10.44 9.91,-20.02 11.84,-28.84 1.83,-8.83 2.8,-17.98 2.8,-27.45 0,-7.75 -1.29,-15.18 -3.77,-22.17 -2.58,-7.11 -6.24,-13.14 -11.08,-18.3 -4.74,-5.17 -10.87,-9.26 -18.19,-12.38 -7.43,-3.02 -15.82,-4.52 -25.3,-4.52 -16.14,0 -31.1,3.55 -44.99,10.55 -13.88,6.99 -27.02,16.47 -39.39,28.2l-40.69 -52.31c17.87,-16.69 38,-29.93 60.38,-39.94 22.39,-10.01 46.61,-14.96 72.66,-14.96 20.23,0 38.42,2.59 54.89,7.75 16.36,5.17 30.36,12.7 42.09,22.82 11.62,10.12 20.66,22.71 27.12,37.89 6.35,15.07 9.58,32.61 9.58,52.31 0,16.47 -2.15,31.75 -6.56,45.96 -4.42,14.1 -10.88,27.99 -19.27,41.44 -8.4,13.45 -18.73,26.91 -31.11,40.36 -12.27,13.46 -26.26,27.66 -42.08,42.52l-59.85 57.05 173.72 0 0 71.04 -279.63 0zm-206.58 -9.9c-12.01,4.89 -24.54,8.49 -37.4,10.89 -12.87,2.32 -26.42,3.52 -40.4,3.52 -20.33,0 -38.43,-2.74 -54.55,-8.32 -16.04,-5.49 -29.68,-13.72 -40.92,-24.62 -11.24,-10.89 -19.81,-24.36 -25.73,-40.48 -5.92,-16.13 -8.92,-34.74 -8.92,-55.84 0,-20.42 3.26,-38.94 9.69,-55.58 6.43,-16.56 15.53,-30.71 27.28,-42.46 11.75,-11.75 25.81,-20.76 42.37,-27.19 16.47,-6.35 34.91,-9.52 55.15,-9.52 16.56,0 30.54,0.86 41.86,2.66 11.32,1.71 21.53,3.94 30.54,6.6l0 59.7c-10.38,-5.23 -21.7,-9.26 -33.8,-12.18 -12.18,-2.83 -23.67,-4.29 -34.57,-4.29 -11.4,0 -21.61,1.89 -30.7,5.75 -9.01,3.86 -16.64,9.26 -22.82,16.12 -6.26,6.87 -10.98,15.27 -14.24,25.05 -3.26,9.78 -4.89,20.59 -4.89,32.34 0,12.26 1.72,23.24 5.24,32.93 3.51,9.78 8.49,18.02 15.01,24.79 6.43,6.78 14.15,12.01 23.15,15.61 9.01,3.61 19.13,5.41 30.11,5.41 5.41,0 11.07,-0.34 16.99,-1.12 5.91,-0.77 11.83,-1.88 17.75,-3.34 6,-1.37 11.84,-3.09 17.58,-4.89 5.84,-1.89 11.24,-3.86 16.22,-6.09l0 54.55zm-238.72 -137.58c0,4.2 -0.09,9.61 -0.35,16.3 -0.26,6.69 -0.68,13.03 -1.2,18.87l-167.77 0c0,11.23 1.71,21.1 5.14,29.67 3.43,8.58 8.32,15.79 14.58,21.53 6.27,5.84 13.81,10.21 22.56,13.21 8.84,3.01 18.53,4.55 29.25,4.55 12.44,0 25.65,-0.94 39.8,-2.92 14.15,-1.88 28.82,-5.06 44.09,-9.43l0 48.89c-6.52,1.8 -13.64,3.43 -21.36,4.97 -7.72,1.46 -15.52,2.75 -23.59,3.95 -8.06,1.11 -16.12,1.97 -24.36,2.57 -8.23,0.6 -16.12,0.86 -23.84,0.86 -19.39,0 -36.8,-2.74 -52.24,-8.32 -15.35,-5.49 -28.48,-13.64 -39.2,-24.45 -10.72,-10.8 -18.87,-24.18 -24.53,-40.14 -5.75,-15.87 -8.58,-34.31 -8.58,-55.24 0,-20.75 2.83,-39.62 8.58,-56.69 5.66,-16.99 13.73,-31.57 24.1,-43.66 10.38,-12.18 22.99,-21.53 37.75,-28.14 14.83,-6.6 31.39,-9.95 49.66,-9.95 18.1,0 34.05,2.83 47.95,8.41 13.89,5.66 25.56,13.47 34.91,23.5 9.35,10.04 16.47,22.05 21.36,35.94 4.88,13.9 7.29,29.16 7.29,45.72zm-62.28 -8.58c0.17,-10.03 -1.11,-18.87 -3.77,-26.33 -2.66,-7.46 -6.35,-13.64 -10.89,-18.53 -4.64,-4.8 -10.04,-8.4 -16.13,-10.81 -6.09,-2.31 -12.69,-3.51 -19.73,-3.51 -15.44,0 -28.05,5.14 -37.91,15.52 -9.86,10.29 -15.78,24.88 -17.58,43.66l106.01 0zm-262.39 155.94l0 -166.4c0,-28.05 -10.38,-42.03 -31.22,-42.03 -10.38,0 -20.33,4.2 -29.77,12.61 -9.52,8.32 -19.55,19.72 -30.1,34.14l0 161.68 -61.25 0 0 -355.11 61.25 0 0 87.41 -3.01 46.23c5.15,-6.18 10.47,-11.75 15.79,-16.73 5.4,-4.89 11.15,-9.09 17.41,-12.43 6.17,-3.35 12.87,-5.92 20.07,-7.64 7.21,-1.8 15.18,-2.66 23.93,-2.66 13.04,0 24.45,2.15 34.14,6.44 9.69,4.28 17.84,10.29 24.36,18.09 6.6,7.81 11.49,17.16 14.75,28.14 3.26,10.98 4.89,23.24 4.89,36.8l0 171.46 -61.24 0zm-189.83 -12.87c-14.58,5.92 -28.65,10.3 -42.29,13.21 -13.72,2.83 -27.87,4.29 -42.63,4.29 -23.58,0 -44.51,-3.52 -62.61,-10.46 -18.19,-6.95 -33.54,-17.24 -45.98,-31.05 -12.52,-13.73 -21.96,-30.8 -28.39,-51.13 -6.43,-20.32 -9.69,-44 -9.69,-71.02 0,-27.62 3.52,-52.23 10.55,-73.76 7.03,-21.53 17.07,-39.72 30.11,-54.55 13.12,-14.84 28.99,-26.17 47.6,-33.97 18.7,-7.81 39.71,-11.67 62.96,-11.67 7.55,0 14.58,0.17 21.19,0.52 6.69,0.34 13.12,0.94 19.47,1.88 6.43,0.95 12.86,2.15 19.38,3.61 6.52,1.54 13.3,3.51 20.33,5.83l0 61.24c-14.24,-6.69 -27.79,-11.41 -40.66,-14.24 -12.86,-2.83 -24.61,-4.29 -35.16,-4.29 -15.53,0 -28.82,2.84 -39.89,8.41 -11.06,5.66 -20.16,13.47 -27.28,23.67 -7.03,10.13 -12.26,22.14 -15.61,36.2 -3.34,13.98 -5.06,29.34 -5.06,46.06 0,17.76 1.72,33.63 5.15,47.69 3.43,13.99 8.75,25.82 15.95,35.51 7.21,9.78 16.39,17.16 27.62,22.31 11.15,5.06 24.53,7.63 39.89,7.63 5.49,0 11.49,-0.52 17.93,-1.63 6.43,-1.12 12.95,-2.49 19.55,-4.29 6.69,-1.71 13.21,-3.86 19.64,-6.26 6.44,-2.4 12.44,-4.89 17.93,-7.38l0 57.64zm1315.86 -192.36l-0.08 -162.91c45.48,-1.13 92.11,-0.17 137.74,-0.23 37.2,-0.06 70.08,-4.03 94.53,26.83 3.17,4.01 4.5,7.66 7.71,11.31l29.41 -26.96c4.19,-4.31 6.51,-4.45 10.1,-9.37 -5.71,-14.15 -26.33,-29.83 -43.3,-38.45 -21.22,-10.79 -44.6,-13.78 -70.57,-13.91 -55.75,-0.27 -111.54,0.11 -167.3,0 -65.84,-0.13 -51.27,53.13 -51.24,118.11 0.02,55.78 1.47,113.43 -0.01,168.98 -0.54,19.58 -2.27,83.39 1.39,99.07 3.59,15.4 11.04,22.1 22.02,27.78 12.85,6.65 29.78,4.57 44.89,4.55l57.14 0.13c79.88,-4.13 154.15,15.55 206.54,-35.62 33.81,-33.02 46.68,-88.71 23.69,-137.3 -6.02,-12.74 -18.23,-30.31 -26.6,-35.48 -2.55,-3.24 -13.05,-12.3 -17.94,-14.23 -3.24,6.12 -11.97,14.81 -17.18,20.23 -6.97,7.26 -12.75,10.45 -18.91,19.28 3.11,3.37 8.63,6.25 12.77,8.02 2.59,6.41 15.44,11.11 21.54,33.34 12.2,44.39 -14.59,87.35 -72.22,90.66l-185.01 0.08c3.14,-15.4 0.92,-58.85 0.97,-77.31 0.07,-25.24 0.63,-51.46 -0.08,-76.6z"/>
 </g>
</svg>
